# xmcd
#
# Track frame offsets:
#	150
#	8901
#	17334
#	26612
#	32707
#	46761
#	60265
#	68186
#	87289
#	97926
#	114778
#	131170
#	147662
#	159345
#	172939
#	186616
#	199612
#	209831
#
# Disc length: 2938 seconds
#
# Revision: 0
# Processed by: cddbd v1.4PL0 Copyright (c) Steve Scherf et al.
# Submitted via: audiograbber 1.81.03
#
DISCID=ed0b7812
DTITLE=Johnny Cash - Live At Folsom Quentin
DYEAR=1969
DGENRE=Country
TTITLE0=Big River
TTITLE1=I Still Miss Someone
TTITLE2=Wreck Of The Ol' 97
TTITLE3=Dialogue
TTITLE4=I Walk The Line
TTITLE5=Darlin' Companion
TTITLE6=I Don't Know Where I'm Bound
TTITLE7=Dialogue II
TTITLE8=Starkville City Jail
TTITLE9=San Quentin
TTITLE10=Wanted Man
TTITLE11=A Boy Named Sue
TTITLE12=Folsom Prison Blues
TTITLE13=Cocaine Blues
TTITLE14=25 Minutes To Go
TTITLE15=Orange Blossom Special
TTITLE16=Ring Of Fire
TTITLE17=Peace In The Valley
EXTD=BellaBoot
EXTT0=
EXTT1=
EXTT2=
EXTT3=
EXTT4=
EXTT5=
EXTT6=
EXTT7=
EXTT8=
EXTT9=
EXTT10=
EXTT11=
EXTT12=
EXTT13=
EXTT14=
EXTT15=
EXTT16=
EXTT17=
PLAYORDER=
